<svg height="auto" viewBox="0 0 2000 1000" xmlns="http://www.w3.org/2000/svg"><path d="M0 997.46c21-6.228 63-13.936 105-31.137 42-17.202 63-44.796 105-54.872s63 8.793 105 4.492c42-4.3 63-10.426 105-25.997 42-15.57 63-19.857 105-51.857 42-31.999 63-72.528 105-108.138s63-40.594 105-69.914 63-94.578 105-76.687c42 17.891 63 150.396 105 166.141 42 15.746 63-28.018 105-87.413 42-59.395 63-161.123 105-209.562 42-48.439 63-29.909 105-32.632 42-2.722 63 8.52 105 19.018 42 10.497 63 60.59 105 33.468s63-144.885 105-169.075c42-24.19 63 3.396 105 48.125 42 44.728 63 171.065 105 175.517 42 4.452 63-120.287 105-153.259 42-32.971 84-9.28 105-11.599l5 637.921H0Z" fill="#444cf71a"/><path d="M0 997.46c21-6.228 63-13.936 105-31.137 42-17.202 63-44.796 105-54.872s63 8.793 105 4.492c42-4.3 63-10.426 105-25.997 42-15.57 63-19.857 105-51.857 42-31.999 63-72.528 105-108.138s63-40.594 105-69.914 63-94.578 105-76.687c42 17.891 63 150.396 105 166.141 42 15.746 63-28.018 105-87.413 42-59.395 63-161.123 105-209.562 42-48.439 63-29.909 105-32.632 42-2.722 63 8.52 105 19.018 42 10.497 63 60.59 105 33.468s63-144.885 105-169.075c42-24.19 63 3.396 105 48.125 42 44.728 63 171.065 105 175.517 42 4.452 63-120.287 105-153.259 42-32.971 84-9.28 105-11.599" fill="none" stroke="#444cf7" stroke-width="4"/><g fill="#444cf7"><circle cy="997.46" r="8"/><circle cx="105" cy="966.323" r="8"/><circle cx="210" cy="911.451" r="8"/><circle cx="315" cy="915.943" r="8"/><circle cx="420" cy="889.946" r="8"/><circle cx="525" cy="838.089" r="8"/><circle cx="630" cy="729.951" r="8"/><circle cx="735" cy="660.037" r="8"/><circle cx="840" cy="583.35" r="8"/><circle cx="945" cy="749.491" r="8"/><circle cx="1050" cy="662.078" r="8"/><circle cx="1155" cy="452.516" r="8"/><circle cx="1260" cy="419.884" r="8"/><circle cx="1365" cy="438.902" r="8"/><circle cx="1470" cy="472.37" r="8"/><circle cx="1575" cy="303.295" r="8"/><circle cx="1680" cy="351.42" r="8"/><circle cx="1785" cy="526.937" r="8"/><circle cx="1890" cy="373.678" r="8"/><circle cx="1995" cy="362.079" r="8"/></g></svg>