<svg width="19" height="23" viewBox="0 0 19 23" fill="none" xmlns="http://www.w3.org/2000/svg">
<g id="Location">
<path id="Vector" d="M9.32511 22.8636C9.16531 22.8636 8.97354 22.8 8.87766 22.6726C8.5261 22.3225 0.408203 13.8236 0.408203 9.04901C0.408203 4.14705 4.40323 0.136353 9.35707 0.136353C14.3109 0.136353 18.3059 4.11522 18.3059 9.04901C18.3059 13.8236 10.188 22.3225 9.83647 22.6726C9.67667 22.8 9.48492 22.8636 9.32511 22.8636ZM9.32511 1.44142C5.10636 1.44142 1.65466 4.84733 1.65466 9.08084C1.65466 10.7997 3.02895 13.5372 5.64969 16.9749C7.0879 18.8848 8.55806 20.54 9.29314 21.3039C10.0282 20.5081 11.4984 18.8848 12.9366 16.9749C15.5574 13.5372 16.9316 10.7997 16.9316 9.08084C16.9636 4.84733 13.5439 1.44142 9.32511 1.44142Z" fill="#EB6329"/>
<path id="Vector_2" d="M9.51634 13.4417C6.99149 13.4417 4.91406 11.4045 4.91406 8.85807C4.91406 6.31159 6.95952 4.27441 9.51634 4.27441C12.0732 4.27441 14.1186 6.31159 14.1186 8.85807C14.1186 11.4045 12.0412 13.4417 9.51634 13.4417ZM9.51634 5.57948C7.69461 5.57948 6.19247 7.0437 6.19247 8.8899C6.19247 10.7043 7.66265 12.2003 9.51634 12.2003C11.3381 12.2003 12.8402 10.7361 12.8402 8.8899C12.8402 7.0437 11.3381 5.57948 9.51634 5.57948Z" fill="#EB6329"/>
</g>
</svg>
