<svg width="25" height="25" viewBox="0 0 25 25" fill="none" xmlns="http://www.w3.org/2000/svg">
<path d="M21.6798 20.9375H3.24071C2.22916 20.9375 1.41992 20.1282 1.41992 19.1167V6.08214C1.41992 5.07059 2.22916 4.26135 3.24071 4.26135H21.6798C22.6914 4.26135 23.5006 5.07059 23.5006 6.08214V19.1167C23.5006 20.1282 22.6625 20.9375 21.6798 20.9375ZM3.21181 5.41741C2.83609 5.41741 2.54708 5.70642 2.54708 6.08214V19.1167C2.54708 19.4924 2.83609 19.7814 3.21181 19.7814H21.6509C22.0266 19.7814 22.3157 19.4924 22.3157 19.1167V6.08214C22.3157 5.70642 22.0266 5.41741 21.6509 5.41741H3.21181Z" fill="#EB6329"/>
<path d="M12.4255 15.759C12.2815 15.759 12.1376 15.7028 12.0224 15.5904L2.11806 5.67377C1.88773 5.44903 1.88773 5.08383 2.11806 4.88718C2.3484 4.66244 2.72268 4.66244 2.92423 4.88718L12.4255 14.4105L22.2722 5.22429C22.5026 4.99955 22.8768 5.02765 23.0784 5.25238C23.3087 5.47712 23.2799 5.84233 23.0496 6.03897L12.7998 15.6185C12.7134 15.7028 12.5694 15.759 12.4255 15.759Z" fill="#EB6329"/>
<path d="M2.40213 20.6773C2.25763 20.6773 2.11312 20.6195 1.99752 20.5039C1.7663 20.2727 1.7663 19.9259 1.96861 19.6947L9.07837 12.3248C9.30958 12.0936 9.65639 12.0936 9.8876 12.2959C10.1188 12.5271 10.1188 12.8739 9.91651 13.1051L2.80675 20.475C2.72005 20.6195 2.57554 20.6773 2.40213 20.6773Z" fill="#EB6329"/>
<path d="M22.4592 20.6773C22.3147 20.6773 22.1701 20.6195 22.0545 20.5039L14.9448 13.134C14.7136 12.9028 14.7425 12.5271 14.9737 12.3248C15.2049 12.0936 15.5806 12.1225 15.7829 12.3537L22.8927 19.7236C23.1239 19.9548 23.095 20.3305 22.8638 20.5328C22.7482 20.6195 22.6037 20.6773 22.4592 20.6773Z" fill="#EB6329"/>
</svg>
