<svg width="23" height="21" viewBox="0 0 23 21" fill="none" xmlns="http://www.w3.org/2000/svg">
<g id="Group 44">
<path id="Vector" d="M19.0279 20.0171C18.9142 20.0171 18.7722 19.9887 18.687 19.9034L10.5336 13.6819C10.4199 13.5966 10.3347 13.4546 10.3063 13.2841C10.2779 13.1421 10.3347 12.9716 10.4483 12.858L15.3631 7.20458L6.8972 11.6364C6.75515 11.7216 6.58469 11.7216 6.44265 11.6648L0.789241 9.73299C0.561968 9.64776 0.419922 9.4489 0.419922 9.19322C0.419922 8.96594 0.561968 8.73867 0.789241 8.65344L22.0108 0.869352C22.2097 0.812533 22.4086 0.840942 22.579 0.954579C22.7211 1.09662 22.8063 1.29549 22.7779 1.49435L19.5677 19.5625C19.5392 19.7614 19.3972 19.9319 19.2267 19.9887C19.1415 20.0171 19.0847 20.0171 19.0279 20.0171ZM11.6983 13.1705L18.6302 18.4546L21.5279 2.28981L2.72106 9.16481L6.61311 10.5L17.4938 4.81821C17.7495 4.70458 18.0336 4.7614 18.204 4.96026C18.3745 5.18753 18.3745 5.47162 18.1756 5.6989L11.6983 13.1705Z" fill="white"/>
<path id="Vector_2" d="M9.31195 19.2216C9.25514 19.2216 9.19832 19.2216 9.1415 19.1932C8.97104 19.1364 8.829 19.0227 8.77218 18.8523L5.78923 11.2102C5.67559 10.9261 5.81764 10.5852 6.10173 10.4716C6.38582 10.358 6.72673 10.5 6.84036 10.7841L9.56763 17.7159L13.2324 14.9886C13.4881 14.7898 13.829 14.8466 14.0279 15.1023C14.2267 15.358 14.1699 15.6989 13.9142 15.8977L9.65286 19.0796C9.53923 19.1932 9.42559 19.2216 9.31195 19.2216Z" fill="white"/>
<path id="Vector_3" d="M9.3127 19.2216C9.25588 19.2216 9.19906 19.2216 9.14225 19.1932C8.82975 19.108 8.65929 18.7955 8.74452 18.483L10.307 13.0852C10.3922 12.7727 10.7047 12.6023 11.0172 12.6875C11.3297 12.7727 11.5002 13.0852 11.415 13.3977L9.85247 18.7955C9.76725 19.0512 9.53998 19.2216 9.3127 19.2216Z" fill="white"/>
</g>
</svg>
