<svg width="25" height="25" viewBox="0 0 25 25" fill="none" xmlns="http://www.w3.org/2000/svg">
<path d="M12.3576 22.9261C10.4542 22.9261 8.57919 22.3864 6.95987 21.3921L3.03942 22.4716C2.84056 22.5284 2.64169 22.4716 2.49964 22.3296C2.3576 22.1875 2.30078 21.9602 2.3576 21.7898L3.46556 17.8409C2.49965 16.2216 1.98828 14.375 1.98828 12.4716C1.98828 6.70456 6.64737 1.98865 12.3576 1.98865C18.0962 1.98865 22.7269 6.67615 22.7269 12.4716C22.7553 18.2102 18.0962 22.9261 12.3576 22.9261ZM7.07351 20.1989C7.18714 20.1989 7.30078 20.2273 7.38601 20.2841C8.86328 21.25 10.5962 21.7614 12.386 21.7614C17.4712 21.7614 21.619 17.5852 21.619 12.4148C21.619 7.24433 17.4712 3.12501 12.3576 3.12501C7.27237 3.12501 3.12464 7.30115 3.12464 12.4432C3.12464 14.2046 3.6076 15.9375 4.5451 17.4148C4.63033 17.5568 4.65874 17.7273 4.60192 17.8693L3.72124 21.108L6.93146 20.2273C6.95987 20.2273 7.01669 20.1989 7.07351 20.1989Z" fill="white"/>
<path d="M14.4589 18.1535C14.3453 18.1535 14.2316 18.1535 14.118 18.1535C12.8964 18.0683 10.993 17.5569 8.97596 15.5967C7.24301 13.9489 6.78846 12.358 6.56119 11.1933C6.19187 9.17621 7.72596 7.2444 7.81119 7.15917C8.01005 6.87508 8.37937 6.73303 8.8055 6.73303C9.26005 6.73303 9.743 6.90349 10.0555 7.18758L11.3339 8.40917C11.5896 8.66485 11.7316 9.00576 11.7032 9.37508C11.6748 9.71599 11.5044 10.0285 11.2487 10.2274L10.4816 10.9944C10.51 11.3069 10.6521 12.0739 11.6464 13.0683C12.5839 14.0342 13.4362 14.2899 13.8623 14.3467L14.4589 13.5512C14.6862 13.2387 15.0555 13.0399 15.4532 13.0399C15.7657 13.0399 16.0498 13.1535 16.2771 13.3524L17.6691 14.6592C17.9248 14.9149 18.0953 15.2558 18.0953 15.6251C18.0953 15.966 17.9532 16.2785 17.726 16.5342C17.4419 16.8751 16.5044 18.1535 14.4589 18.1535ZM8.66346 7.8694C8.52141 8.03985 7.38505 9.57394 7.66914 10.966C7.868 11.9887 8.26573 13.3239 9.77141 14.7728C11.5328 16.4774 13.1805 16.9319 14.2032 17.0171C16.0214 17.1308 16.7032 15.966 16.7316 15.9092C16.76 15.8524 16.8169 15.7955 16.8453 15.7671C16.9021 15.7103 16.9021 15.6535 16.9021 15.6251C16.9021 15.5967 16.9021 15.5399 16.8453 15.483L15.4532 14.1762C15.4248 14.1478 15.368 14.1194 15.3112 14.2046L14.5157 15.2842C14.4021 15.4262 14.2601 15.5114 14.0896 15.5114C14.0896 15.5114 14.0612 15.5114 14.0328 15.5114C13.7487 15.5114 12.2998 15.4262 10.7657 13.8637C9.08959 12.1592 9.28846 10.8239 9.31686 10.6535C9.34527 10.5399 9.40209 10.4262 9.45891 10.341L10.3964 9.37508C10.4248 9.34667 10.4532 9.31826 10.4816 9.31826C10.51 9.31826 10.51 9.28985 10.51 9.26144C10.51 9.23303 10.51 9.23303 10.4816 9.20462L9.20323 7.98303C9.14641 7.92621 8.94755 7.84099 8.74868 7.84099C8.72027 7.8694 8.69187 7.8694 8.66346 7.8694Z" fill="white"/>
</svg>
