<svg width="25" height="25" viewBox="0 0 25 25" fill="none" xmlns="http://www.w3.org/2000/svg">
<path d="M12.7983 21.4205C12.7699 21.4205 12.7699 21.4205 12.7983 21.4205C12.1165 21.3921 11.4631 21.3921 10.8097 21.3637C9.16193 21.3069 7.42898 21.2501 5.75284 21.1932C4.92898 21.1648 4.13352 21.0512 3.39489 20.9376C1.80398 20.7103 0.667614 19.5739 0.383523 17.9546C0.184659 16.7898 0.0710227 15.7387 0.0426136 14.7444C-0.0142045 13.1819 -0.0142045 11.6762 0.0426136 10.2557C0.0710227 9.17619 0.184659 8.03983 0.411932 6.90346C0.696023 5.34096 1.91761 4.23301 3.59375 4.03415C6.12216 3.72165 8.67898 3.69324 10.8381 3.69324C13.054 3.69324 15.3835 3.72165 18.2244 3.80687C19.1335 3.83528 20.1278 3.92051 21.2358 4.09096C22.9688 4.34665 24.0767 5.42619 24.3892 7.18756C24.7017 8.97733 24.8153 10.9376 24.7585 13.3239C24.7301 14.4603 24.6449 15.5966 24.5312 16.8466C24.4744 17.358 24.3892 17.8978 24.2472 18.4091C23.8494 19.8296 22.6847 20.7955 21.0938 20.9944C18.7642 21.2785 16.4062 21.3069 14.1335 21.3353H13.679C13.5653 21.3353 13.4801 21.3353 13.3665 21.3353H13.0824C12.9688 21.3921 12.8835 21.4205 12.7983 21.4205ZM10.8381 4.8296C8.70739 4.8296 6.20739 4.85801 3.7358 5.17051C2.54261 5.31256 1.74716 6.02278 1.51989 7.13074C1.32102 8.21028 1.17898 9.26142 1.15057 10.3126C1.09375 11.7046 1.09375 13.1819 1.15057 14.716C1.17898 15.6535 1.29261 16.6478 1.49148 17.7841C1.69034 18.8921 2.45739 19.6591 3.53693 19.8296C4.24716 19.9432 5.0142 20.0285 5.78125 20.0569C7.45739 20.1137 9.19034 20.1705 10.8381 20.2273C11.4062 20.2557 11.9744 20.2557 12.571 20.2841C12.6562 20.2557 12.7131 20.2273 12.7983 20.2273H13.3381C13.4233 20.2273 13.5369 20.2273 13.6222 20.2273H14.0767C16.321 20.1989 18.6506 20.1705 20.9233 19.8864C22.0597 19.7444 22.8551 19.1194 23.1108 18.1535C23.2244 17.6989 23.3097 17.2444 23.3665 16.7898C23.4801 15.5682 23.5653 14.4603 23.5937 13.3239C23.6506 10.9944 23.5369 9.11937 23.2244 7.41483C22.9972 6.13642 22.2869 5.42619 21.0369 5.25574C19.9858 5.11369 19.0483 5.00006 18.1676 4.97165C15.3551 4.85801 13.0256 4.8296 10.8381 4.8296ZM9.9858 16.6194C9.90057 16.6194 9.78693 16.591 9.7017 16.5341C9.53125 16.4205 9.41761 16.2501 9.41761 16.0512V8.97733C9.41761 8.77846 9.53125 8.5796 9.7017 8.49437C9.87216 8.40915 10.0994 8.38074 10.2699 8.49437L16.4062 12.0171C16.5767 12.1307 16.6903 12.3012 16.6903 12.5001C16.6903 12.6989 16.5767 12.8978 16.4062 12.983L10.2699 16.5341C10.1847 16.591 10.0994 16.6194 9.9858 16.6194ZM10.554 9.97165V15.0853L14.9858 12.5285L10.554 9.97165Z" fill="white"/>
</svg>
