<svg width="260" height="52" viewBox="0 0 260 52" fill="none" xmlns="http://www.w3.org/2000/svg">
<g clip-path="url(#clip0_6_472)">
<path fill-rule="evenodd" clip-rule="evenodd" d="M90.4302 41.3278H95.5641V17.4665L90.4302 12.3588V41.3278ZM11.7369 42.0901C17.7137 42.0901 23.154 38.2784 23.154 33.2469C23.154 25.5473 14.1889 24.7849 9.51484 23.489C7.75247 23.0316 6.44986 21.8118 6.44986 20.5921C6.44986 18.9149 8.44209 17.4665 11.4304 17.4665C14.6487 17.4665 16.3344 18.9911 16.4877 20.7445H21.928C21.6981 15.8655 17.1007 12.5875 11.5071 12.5875C5.60699 12.5875 1.08615 16.4754 1.08615 20.7445C1.08615 24.6325 4.45762 27.3007 8.1356 28.4442C10.511 29.1303 12.8863 29.4352 14.8785 30.1213C16.6409 30.7312 18.0201 31.646 18.0201 33.1707C18.0201 35.0003 15.5682 37.1349 11.4304 37.1349C7.75247 37.1349 4.84075 34.9241 5.07062 32.2559H0.0134054C-0.293092 37.5161 4.6875 42.0901 11.7369 42.0901ZM33.1918 12.3588H28.058V20.2109H23.4605V24.4038H28.1346V36.2201L33.2684 41.3278V24.4038H37.9425V20.2109H33.2684V12.3588H33.1918ZM75.795 41.9376C80.6223 41.9376 85.373 38.812 86.7523 34.1617H81.3119C80.3924 35.9914 78.247 37.5923 75.795 37.5923C72.5001 37.5923 70.2014 35.0766 69.5884 32.3321H87.212C88.2081 26.6908 83.7639 19.601 75.795 19.601C69.2819 19.601 64.3013 24.7087 64.3013 30.7312C64.3013 36.9824 69.3585 41.9376 75.795 41.9376ZM69.8949 28.1392C70.8144 25.9285 72.8832 23.9464 75.795 23.9464C78.6301 23.9464 81.0054 26.0047 81.6951 28.1392H69.8949ZM50.5855 41.9376C55.4129 41.9376 60.1636 38.812 61.5428 34.1617H56.1025C55.183 35.9914 53.0375 37.5923 50.5855 37.5923C47.2907 37.5923 44.992 35.0766 44.379 32.3321H62.0026C62.9987 26.6908 58.5545 19.601 50.5855 19.601C44.0725 19.601 39.0919 24.7087 39.0919 30.7312C39.0919 36.9824 44.1491 41.9376 50.5855 41.9376ZM44.6855 28.1392C45.6049 25.9285 47.6738 23.9464 50.5855 23.9464C53.4206 23.9464 55.796 26.0047 56.4856 28.1392H44.6855Z" fill="#EB6329"/>
<path fill-rule="evenodd" clip-rule="evenodd" d="M186.594 17.4665H191.728V12.3588H186.594V17.4665ZM121.769 24.6325L113.8 32.5608L105.755 24.5562V41.404H100.621V12.435L113.8 25.471L126.903 12.435V41.404L121.769 36.2963V24.6325ZM163.836 12.3588H158.702V20.2109H154.028V24.4038H158.702V36.2201L163.836 41.3277V24.4038H168.51V20.2109H163.836V12.3588ZM141.998 41.9376C135.562 41.9376 130.505 36.9824 130.505 30.8074C130.505 24.7849 135.562 19.6772 141.998 19.6772C149.967 19.6772 154.411 26.767 153.415 32.4084H135.792C136.328 35.0765 138.703 37.6685 141.998 37.6685C144.527 37.6685 146.596 36.1438 147.515 34.238H152.956C151.576 38.812 146.902 41.9376 141.998 41.9376ZM136.175 28.1392H147.898C147.209 26.0809 144.833 23.9464 141.998 23.9464C139.163 23.9464 137.018 25.9284 136.175 28.1392ZM171.192 41.3277H176.326V29.7402C176.326 25.9284 180.387 23.4127 183.682 24.7087V20.0584C180.464 19.2198 177.629 20.7445 176.326 22.9553V20.2109H171.192V41.3277ZM186.594 41.3277H191.728V25.3186L186.594 20.2109V41.3277Z" fill="white"/>
<path fill-rule="evenodd" clip-rule="evenodd" d="M252.568 38.9646L242.377 28.8255L240.078 31.1125L259.924 50.9334L259.234 51.6195L239.389 31.7986L229.734 41.4041H222.761L213.107 31.7986L203.452 41.4041H196.096L209.352 28.2156L182.84 1.68611L183.529 1L197.398 14.7984H201.996L191.882 4.81171L192.571 4.1256L213.107 24.4801L220.846 16.7805L221.459 17.3904L213.719 25.09L216.095 27.4533L225.596 18.0002L222.455 14.7984H228.355L218.24 4.73548L218.853 4.1256L229.198 14.4172L239.542 4.1256L240.232 4.81171L229.887 15.1033L239.465 24.6326L259.388 4.81171L260.001 5.49782L240.078 25.3187L242.377 27.6057L252.491 17.5428L253.181 18.2289L243.067 28.3681L253.258 38.5072L252.568 38.9646ZM213.719 31.1125L223.221 40.5655L235.711 28.1394L226.133 18.6101C222.991 21.7357 219.773 24.9375 216.631 28.1394L222.531 34.0094L221.918 34.6193L216.018 28.7492L213.719 31.1125Z" fill="white"/>
</g>
<defs>
<clipPath id="clip0_6_472">
<rect width="260" height="52" fill="white"/>
</clipPath>
</defs>
</svg>
