<svg width="260" height="52" viewBox="0 0 260 52" fill="none" xmlns="http://www.w3.org/2000/svg">
<g clip-path="url(#clip0_56_2237)">
<path fill-rule="evenodd" clip-rule="evenodd" d="M90.4302 41.3279H95.5641V17.4666L90.4302 12.3589V41.3279ZM11.7369 42.0902C17.7137 42.0902 23.154 38.2785 23.154 33.2471C23.154 25.5474 14.1889 24.7851 9.51484 23.4891C7.75247 23.0317 6.44986 21.8119 6.44986 20.5922C6.44986 18.915 8.44209 17.4666 11.4304 17.4666C14.6487 17.4666 16.3344 18.9913 16.4877 20.7446H21.928C21.6981 15.8657 17.1007 12.5876 11.5071 12.5876C5.60699 12.5876 1.08615 16.4755 1.08615 20.7446C1.08615 24.6326 4.45762 27.3008 8.1356 28.4443C10.511 29.1304 12.8863 29.4353 14.8785 30.1215C16.6409 30.7313 18.0201 31.6461 18.0201 33.1708C18.0201 35.0004 15.5682 37.135 11.4304 37.135C7.75247 37.135 4.84075 34.9242 5.07062 32.256H0.0134054C-0.293092 37.5162 4.6875 42.0902 11.7369 42.0902ZM33.1918 12.3589H28.058V20.211H23.4605V24.4039H28.1346V36.2202L33.2684 41.3279V24.4039H37.9425V20.211H33.2684V12.3589H33.1918ZM75.795 41.9378C80.6223 41.9378 85.373 38.8122 86.7523 34.1619H81.3119C80.3924 35.9915 78.247 37.5924 75.795 37.5924C72.5001 37.5924 70.2014 35.0767 69.5884 32.3322H87.212C88.2081 26.6909 83.7639 19.6011 75.795 19.6011C69.2819 19.6011 64.3013 24.7088 64.3013 30.7313C64.3013 36.9825 69.3585 41.9378 75.795 41.9378ZM69.8949 28.1394C70.8144 25.9286 72.8832 23.9465 75.795 23.9465C78.6301 23.9465 81.0054 26.0048 81.6951 28.1394H69.8949ZM50.5855 41.9378C55.4129 41.9378 60.1636 38.8122 61.5428 34.1619H56.1025C55.183 35.9915 53.0375 37.5924 50.5855 37.5924C47.2907 37.5924 44.992 35.0767 44.379 32.3322H62.0026C62.9987 26.6909 58.5545 19.6011 50.5855 19.6011C44.0725 19.6011 39.0919 24.7088 39.0919 30.7313C39.0919 36.9825 44.1491 41.9378 50.5855 41.9378ZM44.6855 28.1394C45.6049 25.9286 47.6738 23.9465 50.5855 23.9465C53.4206 23.9465 55.796 26.0048 56.4856 28.1394H44.6855Z" fill="#EB6329"/>
<path fill-rule="evenodd" clip-rule="evenodd" d="M186.594 17.4666H191.728V12.3589H186.594V17.4666ZM121.769 24.6326L113.8 32.5609L105.755 24.5564V41.4041H100.621V12.4351L113.8 25.4712L126.903 12.4351V41.4041L121.769 36.2964V24.6326ZM163.836 12.3589H158.702V20.211H154.028V24.4039H158.702V36.2202L163.836 41.3279V24.4039H168.51V20.211H163.836V12.3589ZM141.998 41.9377C135.562 41.9377 130.505 36.9825 130.505 30.8076C130.505 24.7851 135.562 19.6774 141.998 19.6774C149.967 19.6774 154.411 26.7671 153.415 32.4085H135.792C136.328 35.0767 138.703 37.6686 141.998 37.6686C144.527 37.6686 146.596 36.144 147.515 34.2381H152.956C151.576 38.8121 146.902 41.9377 141.998 41.9377ZM136.175 28.1394H147.898C147.209 26.081 144.833 23.9465 141.998 23.9465C139.163 23.9465 137.018 25.9286 136.175 28.1394ZM171.192 41.3279H176.326V29.7403C176.326 25.9286 180.387 23.4128 183.682 24.7088V20.0585C180.464 19.22 177.629 20.7446 176.326 22.9554V20.211H171.192V41.3279ZM186.594 41.3279H191.728V25.3187L186.594 20.211V41.3279Z" fill="#464646"/>
<path fill-rule="evenodd" clip-rule="evenodd" d="M252.568 38.9646L242.377 28.8255L240.078 31.1125L259.924 50.9334L259.234 51.6195L239.389 31.7986L229.734 41.4041H222.761L213.107 31.7986L203.452 41.4041H196.096L209.352 28.2156L182.84 1.68611L183.529 1L197.398 14.7984H201.996L191.882 4.81171L192.571 4.1256L213.107 24.4801L220.846 16.7805L221.459 17.3904L213.719 25.09L216.095 27.4533L225.596 18.0002L222.455 14.7984H228.355L218.24 4.73548L218.853 4.1256L229.198 14.4172L239.542 4.1256L240.232 4.81171L229.887 15.1033L239.465 24.6326L259.388 4.81171L260.001 5.49782L240.078 25.3187L242.377 27.6057L252.491 17.5428L253.181 18.2289L243.067 28.3681L253.258 38.5072L252.568 38.9646ZM213.719 31.1125L223.221 40.5655L235.711 28.1394L226.133 18.6101C222.991 21.7357 219.773 24.9375 216.631 28.1394L222.531 34.0094L221.918 34.6193L216.018 28.7492L213.719 31.1125Z" fill="#464646"/>
</g>
<defs>
<clipPath id="clip0_56_2237">
<rect width="260" height="52" fill="white"/>
</clipPath>
</defs>
</svg>
